PathFileType	4	(X/Y/Z)	./resultDataOpenSim/trcMotMarkerGrf/sub06/qtm-02-07.trc
DataRate	CameraRate	NumFrames	NumMarkers	Units	OrigDataRate	OrigDataStartFrame	OrigNumFrames
250.000000	250.000000	12	24	m	250.000000	1	494
Frame#	Time	L.Toe.Tip			R.Toe.Tip			L.Ankle.Lat			R.Ankle.Lat			L.Ankle.Med			R.Ankle.Med			L.Heel			R.Heel			L.Knee.Lat			R.Knee.Lat			L.Knee.Med			R.Knee.Med			L.Thigh.Upper			R.Thigh.Upper			L.ASIS			R.ASIS			V.Sacral			L.Acromium			R.Acromium			C7			L.Elbow			R.Elbow			L.Wrist.Lat			R.Wrist.Lat
		X1	Y1	Z1	X2	Y2	Z2	X3	Y3	Z3	X4	Y4	Z4	X5	Y5	Z5	X6	Y6	Z6	X7	Y7	Z7	X8	Y8	Z8	X9	Y9	Z9	X10	Y10	Z10	X11	Y11	Z11	X12	Y12	Z12	X13	Y13	Z13	X14	Y14	Z14	X15	Y15	Z15	X16	Y16	Z16	X17	Y17	Z17	X18	Y18	Z18	X19	Y19	Z19	X20	Y20	Z20	X21	Y21	Z21	X22	Y22	Z22	X23	Y23	Z23	X24	Y24	Z24

1	0	-1.5634696	0.032239774	-0.072325615	-0.97211608	0.092313207	0.1440503	-1.682319	0.079894141	-0.078083897	-1.1040681	0.080369182	0.14954082	-1.6687189	0.09120444	0.0053463938	-1.0850362	0.10910386	0.066972122	NaN	NaN	NaN	-1.1413426	0.042154622	0.075322886	-1.5191014	0.41378451	-0.098847613	-1.1875528	0.46166157	0.15656904	-1.5255791	0.41469138	0.021787551	-1.2011671	0.43837859	0.030432401	-1.4078555	0.78420318	-0.16080572	-1.3864817	0.7806014	0.18809872	-1.3207042	0.81993838	-0.12244235	-1.298419	0.82725849	0.12383917	-1.4850473	0.91209447	0.020907918	-1.3296246	1.3120846	-0.16963242	-1.3460727	1.2932646	0.19304552	-1.4107262	1.3460275	0.010010726	-1.3387167	0.98984001	-0.2461756	-1.4859984	1.0086884	0.24602387	-1.1255003	0.86295022	-0.2086872	-1.3801456	0.78523792	0.27401196
2	0.004	-1.5642119	0.032217379	-0.071744588	-0.95785575	0.09642665	0.14436804	-1.6819129	0.080658418	-0.078248132	-1.0895369	0.081007337	0.15016329	-1.6680945	0.092017079	0.0050920356	-1.0714065	0.11018622	0.067488548	NaN	NaN	NaN	-1.1257057	0.041823248	0.076196149	-1.5156458	0.41318478	-0.098829572	-1.1816122	0.46005462	0.15620693	-1.5219237	0.41390113	0.02170109	-1.1948757	0.43661376	0.02995407	-1.4026979	0.78284672	-0.16028974	-1.3804752	0.77885622	0.18806186	-1.3151384	0.8185037	-0.12256834	-1.2919278	0.82570039	0.12389139	-1.479246	0.91074452	0.021181702	-1.3237049	1.310517	-0.169127	-1.3402661	1.2916105	0.19357356	-1.4047755	1.344551	0.010291145	-1.3314465	0.98818065	-0.24583075	-1.4797293	1.0065452	0.24562103	-1.117902	0.86238117	-0.20732679	-1.3760255	0.7832143	0.27445897
3	0.008	-1.5646665	0.032187095	-0.071393405	-0.94401408	0.10047341	0.14464606	-1.6814512	0.081468367	-0.078441936	-1.0753855	0.081671252	0.15075537	-1.6674531	0.09281439	0.004823959	-1.0581364	0.1112377	0.067965184	NaN	NaN	NaN	-1.1106025	0.04148766	0.076993916	-1.5121099	0.41257847	-0.098830719	-1.1755496	0.45854738	0.15587999	-1.5180961	0.41314536	0.021601661	-1.1885276	0.43488871	0.029484887	-1.3975181	0.78150621	-0.15980661	-1.3740597	0.7771924	0.1881261	-1.3095323	0.81706436	-0.12265649	-1.2853517	0.8241567	0.12395089	-1.4736011	0.90941941	0.02108463	-1.3177725	1.3089771	-0.1686335	-1.334429	1.2899813	0.19411486	-1.3987826	1.3430973	0.010657131	-1.3241789	0.98654133	-0.24542764	-1.473373	1.0043914	0.24518706	-1.1103416	0.86177216	-0.20598674	-1.3718454	0.78122923	0.27492727
4	0.012	-1.5648035	0.032150817	-0.071292923	-0.93085932	0.10435821	0.14486741	-1.6809244	0.082342198	-0.078662126	-1.0618549	0.082344662	0.15126524	-1.6667389	0.093624802	0.0045267787	-1.0454379	0.11222302	0.068362619	NaN	NaN	NaN	-1.0963069	0.041146455	0.077683403	-1.5084289	0.41196399	-0.098861581	-1.1692726	0.45719442	0.15560008	-1.5141143	0.41242742	0.021501307	-1.1820835	0.4332284	0.029031481	-1.392287	0.78017604	-0.15935399	-1.3670069	0.77565517	0.18834595	-1.3038299	0.81562752	-0.12266423	-1.278649	0.82263967	0.12402444	-1.4679033	0.90810142	0.021153629	-1.3118081	1.3074766	-0.16813014	-1.3285379	1.2883919	0.19468386	-1.3927163	1.3416779	0.011171425	-1.3169197	0.98494225	-0.24496206	-1.4668372	1.0021933	0.2446726	-1.1028356	0.86110578	-0.20466716	-1.3675671	0.7793006	0.27542724
5	0.016	-1.564772	0.032118246	-0.07132037	-0.91850954	0.10795397	0.14503644	-1.6803451	0.083277711	-0.078892385	-1.0490593	0.082973447	0.15163669	-1.6660109	0.094489035	0.004224152	-1.0334007	0.11309379	0.06864291	NaN	NaN	NaN	-1.082878	0.040797535	0.078248738	-1.504585	0.41134971	-0.098915472	-1.1627499	0.45600199	0.15535344	-1.5101268	0.41171259	0.021431827	-1.1755419	0.43164892	0.028598456	-1.3869817	0.77884655	-0.15890398	-1.3593163	0.77425332	0.18872212	-1.2980043	0.81420247	-0.12257882	-1.2718434	0.82115706	0.12410412	-1.4617813	0.90675791	0.022384658	-1.3058063	1.306019	-0.16759124	-1.3225986	1.2868526	0.19528806	-1.3865946	1.3402886	0.011789722	-1.3096916	0.9833954	-0.24445171	-1.4601612	0.99999266	0.24411925	-1.0954016	0.86039186	-0.20336052	-1.3631843	0.77743326	0.2759603
6	0.02	-1.5647001	0.03209649	-0.071370978	-0.9069693	0.11113503	0.14515438	-1.6797192	0.084272612	-0.07912874	-1.0370225	0.083501492	0.1518461	-1.6655908	0.095378444	0.0040252341	-1.0220394	0.11379868	0.068777838	NaN	NaN	NaN	-1.0702655	0.040425236	0.07864678	-1.5005853	0.41074348	-0.098981758	-1.1559992	0.45493803	0.15512051	-1.5061485	0.41097198	0.021401117	-1.1689123	0.43016744	0.028183822	-1.3815857	0.77751611	-0.15843525	-1.3510996	0.7729753	0.18922745	-1.2920559	0.81279647	-0.12240754	-1.2649797	0.81970894	0.12417027	-1.4552536	0.90540323	0.024820215	-1.2997656	1.3046065	-0.16701549	-1.3166286	1.2853669	0.19592452	-1.3804588	1.3389174	0.012383258	-1.3025133	0.98189831	-0.24389697	-1.4534893	0.99791039	0.2437321	-1.0880489	0.85964502	-0.20206347	-1.3586895	0.77562375	0.27652438
7	0.024	-1.5646328	0.032085148	-0.071407807	-0.89619121	0.11379779	0.14519688	-1.6790604	0.085331822	-0.079373455	-1.0257303	0.083886061	0.15189854	-1.666019	0.096170584	0.0041168564	-1.0113333	0.11430471	0.068753834	NaN	NaN	NaN	-1.0583989	0.040004522	0.078820709	-1.4964177	0.41013427	-0.099062414	-1.1490603	0.45395094	0.15489349	-1.5020051	0.41021571	0.021381513	-1.1621998	0.42880361	0.027779341	-1.3760975	0.77618999	-0.15795313	-1.3424865	0.77180522	0.1898297	-1.2860007	0.81143011	-0.12215525	-1.2580803	0.81829418	0.12421178	-1.4487623	0.90408832	0.02740408	-1.2936834	1.3032402	-0.16640915	-1.3106296	1.28393	0.19658526	-1.374321	1.3375643	0.012896073	-1.2953936	0.98044362	-0.24329048	-1.4468847	0.9960203	0.24381238	-1.0807769	0.85886957	-0.20077998	-1.354064	0.77386742	0.2771133
8	0.028	-1.5645689	0.032079848	-0.071434097	-0.88611834	0.11586417	0.14512401	-1.6784004	0.086464982	-0.079627013	-1.015164	0.084088949	0.1517987	-1.6676242	0.096777866	0.0046066779	-1.001246	0.1146013	0.068567762	NaN	NaN	NaN	-1.0472821	0.039524156	0.078766962	-1.4920416	0.4094985	-0.099162248	-1.1419562	0.45299749	0.15467467	-1.4975756	0.40945103	0.021347218	-1.155402	0.42757302	0.027385804	-1.3705222	0.77487883	-0.1574735	-1.3335901	0.77072935	0.1905003	-1.2798836	0.81012984	-0.12186045	-1.251127	0.81691627	0.12423123	-1.4426262	0.90283698	0.029309196	-1.2875572	1.3019178	-0.16577369	-1.3045747	1.2825336	0.19726512	-1.3681497	1.3362419	0.013408002	-1.288332	0.97903068	-0.24263027	-1.4402942	0.99430918	0.24455624	-1.073582	0.8580663	-0.1995185	-1.3492926	0.77216455	0.2777189
9	0.032	-1.5644978	0.032077244	-0.071463003	-0.87670487	0.11728501	0.14490889	-1.6777441	0.087674122	-0.079898181	-1.0053109	0.084070694	0.15154192	-1.6697784	0.097331785	0.0052676012	-0.99175238	0.114681	0.068222459	NaN	NaN	NaN	-1.0370125	0.038983041	0.07855043	-1.4874288	0.40883346	-0.099275739	-1.1347027	0.4520554	0.15446767	-1.49288	0.4086575	0.021285109	-1.1485112	0.42648593	0.027013072	-1.36486	0.77359489	-0.15699989	-1.324507	0.76973657	0.1912146	-1.2737629	0.80890451	-0.12159692	-1.2440823	0.81557974	0.12423642	-1.4367711	0.90163584	0.030552294	-1.2813871	1.3006373	-0.16511664	-1.2984299	1.2811717	0.19796067	-1.3619074	1.3349598	0.014024333	-1.2813271	0.97767037	-0.24192339	-1.4337214	0.99275104	0.24574031	-1.0664606	0.85723906	-0.19828487	-1.3443722	0.77052039	0.27833629
10	0.036	-1.5644138	0.032076484	-0.071502211	-0.86792412	0.11804464	0.14454316	-1.6770105	0.088957602	-0.080210097	-0.9961683	0.08379791	0.15112271	-1.6710709	0.098132247	0.0056128359	-0.98286446	0.11452033	0.06772506	NaN	NaN	NaN	-1.0276596	0.038359806	0.078218428	-1.4825979	0.40816304	-0.099394897	-1.127343	0.45112614	0.15426663	-1.4879042	0.40783157	0.021176524	-1.1415223	0.4255515	0.026659478	-1.3591056	0.77234564	-0.15652602	-1.3153271	0.76881696	0.19194967	-1.2676549	0.80774206	-0.12140465	-1.2369262	0.81428805	0.12423287	-1.4308931	0.90045224	0.031405117	-1.2751747	1.2994002	-0.16444837	-1.2921763	1.2798463	0.19866802	-1.3555848	1.3337196	0.014764444	-1.2743813	0.97637397	-0.24117939	-1.4273399	0.99135061	0.24666562	-1.0594124	0.85638955	-0.1970807	-1.339309	0.76894336	0.27896389
11	0.04	-1.5643167	0.032077388	-0.071549616	-0.85976951	0.1181547	0.14401878	-1.6761437	0.090327827	-0.080568124	-0.98774401	0.083250527	0.15054512	-1.6706644	0.099361634	0.0053598724	-0.97462497	0.11408444	0.067086806	NaN	NaN	NaN	-1.0191978	0.03761056	0.077753865	-1.4775945	0.4075045	-0.099522044	-1.1199238	0.45023578	0.15404898	-1.4826215	0.40699805	0.021011732	-1.1344425	0.4247784	0.026319911	-1.3532499	0.771134	-0.15604008	-1.3061415	0.76796054	0.19268234	-1.2615254	0.80662226	-0.12126788	-1.229671	0.81304674	0.12421833	-1.4246308	0.8992289	0.031858936	-1.2689225	1.298211	-0.16376873	-1.2858104	1.2785652	0.19938761	-1.349195	1.3325214	0.015580882	-1.2674955	0.97514206	-0.24039812	-1.421353	0.99011371	0.24668306	-1.0524447	0.85551642	-0.1959089	-1.33411	0.76744158	0.27959801
12	0.044	-1.5642094	0.032080238	-0.071598551	-0.85224741	0.11764528	0.14331863	-1.6752694	0.091802293	-0.080931171	-0.98004479	0.08241928	0.14982238	-1.6688763	0.100958	0.0046302791	-0.9670712	0.11334594	0.066321899	NaN	NaN	NaN	-1.0115772	0.036690883	0.077132862	-1.4724405	0.4068505	-0.099668158	-1.1124418	0.44941158	0.15379131	-1.477141	0.40617013	0.020811078	-1.1272855	0.42416928	0.026012837	-1.3472856	0.76996384	-0.15552582	-1.2970484	0.76715665	0.19338749	-1.2553333	0.80552982	-0.1211534	-1.2223339	0.8118621	0.12418709	-1.4177169	0.89790887	0.03174314	-1.2626313	1.2970746	-0.16306868	-1.2793403	1.2773336	0.20012474	-1.3427499	1.3313606	0.016440631	-1.2606692	0.97397186	-0.23957676	-1.4157149	0.98901025	0.2458294	-1.0455673	0.85462224	-0.19477288	-1.3287803	0.76601693	0.28023332
